<?xml version="1.0" encoding="utf-8"?>
<!-- Generator: Adobe Illustrator 24.1.0, SVG Export Plug-In . SVG Version: 6.00 Build 0)  -->
<svg version="1.1" id="Layer_1" xmlns="http://www.w3.org/2000/svg" xmlns:xlink="http://www.w3.org/1999/xlink" x="0px" y="0px"
	 viewBox="0 0 522.4 113.7" style="enable-background:new 0 0 522.4 113.7;" xml:space="preserve">
<style type="text/css">
	.st0{fill:#FFFFFF;}
</style>
<g id="Group_151" transform="translate(-6029.588 6958.712)">
	<g id="Layer_2_1_" transform="translate(6029.588 -6958.712)">
		<g id="Layer_1_1_">
			<path id="Path_140" class="st0" d="M80.6,51.1l34.9-2.3l-35-2.3l11.1-13.3l-13.2,11L76.1,0l-2.3,44.3l-13.2-11l11.1,13.3l-35,2.3
				l34.9,2.3L60.5,64.4l13.3-11l2.3,44.3l2.3-44.3l13.2,11L80.6,51.1z"/>
			<path id="Path_141" class="st0" d="M18.2,53.7l-6.7-4c-4.2-2.5-7.1-5.1-8.9-7.5C0.9,39.7,0,36.7,0,33.6c-0.2-4.5,1.7-8.8,5-11.7
				c3.3-3,7.7-4.5,13-4.5c5,0,9.9,1.5,14.1,4.3v9.9c-4.4-4.2-9.1-6.4-14.2-6.4c-2.5-0.1-5,0.6-7,2c-1.7,1.1-2.8,3-2.8,5.1
				c0,1.9,0.8,3.7,2,5.1c1.9,2,4.1,3.7,6.5,5l6.7,4c7.5,4.5,11.2,10.1,11.2,17c0.2,4.5-1.6,8.9-4.9,12c-3.3,3.1-7.5,4.6-12.8,4.6
				c-6,0-11.8-1.9-16.5-5.6V63.4c4.7,6,10.2,9,16.4,9c2.5,0.1,4.9-0.7,6.9-2.3c1.8-1.4,2.8-3.5,2.7-5.7
				C26.3,60.6,23.6,57.1,18.2,53.7z"/>
			<path id="Path_142" class="st0" d="M75.9,17.3c9.4,0,17.3,3,23.6,9c6.2,5.8,9.6,14,9.4,22.5c0,9-3.2,16.5-9.5,22.4
				c-6.3,5.9-14.3,8.9-24,8.9c-9.2,0-16.9-3-23-8.9C46.3,65.4,43,57.3,43.2,49c0-9.1,3.1-16.7,9.3-22.7
				C58.7,20.3,66.5,17.3,75.9,17.3z M76.3,25.6c-7,0-12.8,2.2-17.3,6.6c-4.5,4.4-6.8,10-6.8,16.8c-0.2,6.2,2.3,12.2,6.8,16.5
				c9.7,8.8,24.5,8.7,34-0.1c4.5-4.4,7-10.4,6.8-16.7c0.1-6.2-2.4-12.1-6.8-16.4C88.6,27.9,82.5,25.5,76.3,25.6z"/>
			<path id="Path_143" class="st0" d="M164.1,18.2h8.8v34.7c0.1,3.6-0.2,7.1-1,10.6c-0.6,2.1-1.4,4.1-2.5,6c-1,1.6-2.3,3-3.7,4.3
				c-4.8,4.2-11.2,6.3-19,6.3c-8,0-14.4-2.1-19.2-6.2c-1.4-1.3-2.7-2.7-3.7-4.3c-1.1-1.8-1.9-3.8-2.5-5.8c-0.8-3.6-1.1-7.2-1-10.9
				V18.2h8.8v34.7c0,5.7,0.7,9.7,2,12c1.4,2.4,3.5,4.2,6,5.4c3,1.4,6.2,2.1,9.5,2c5.2,0,9.4-1.4,12.7-4.1c1.7-1.4,2.9-3.2,3.7-5.2
				c0.8-2,1.1-5.4,1.1-10.2L164.1,18.2z"/>
			<path id="Path_144" class="st0" d="M181.6,18.1h51.1v7.8h-21.3v53.5h-8.8V25.9h-21V18.1z"/>
			<path id="Path_145" class="st0" d="M284.1,18.2h8.8v61.2h-8.8V52.7h-34.4v26.6h-8.8V18.2h8.8v26.4h34.4L284.1,18.2z"/>
			<path id="Path_146" class="st0" d="M308.2,18.2h32.6V26h-23.9v17.1h23.9v7.8h-23.9v28.5h-8.8L308.2,18.2z"/>
			<path id="Path_147" class="st0" d="M352,18.2h8.8v61.2H352V18.2z"/>
			<path id="Path_148" class="st0" d="M374.4,18.2H409V26h-25.9v18.7h25v7.8h-25v19h26.8v7.8h-35.5L374.4,18.2z"/>
			<path id="Path_149" class="st0" d="M421,18.2h8.8v53.2h27.5v8H421V18.2z"/>
			<path id="Path_150" class="st0" d="M465,79.3V18.2h20.6c8.3,0,14.9,1.2,19.7,3.7c4.8,2.5,8.8,6.3,11.5,11
				c2.8,4.8,4.3,10.3,4.3,15.8c0,8.1-3.3,15.9-9.1,21.6c-3,2.9-6.5,5.2-10.4,6.6c-2,0.8-4.2,1.4-6.3,1.8c-3.7,0.4-7.3,0.5-11,0.5
				L465,79.3z M484.7,26h-10.9v45.5H485c3.4,0.1,6.8-0.2,10.2-0.9c2.1-0.5,4.2-1.2,6.1-2.3c1.6-0.9,3.1-2.1,4.4-3.4
				c4.3-4.4,6.5-9.9,6.5-16.6c0-6.6-2.2-11.9-6.7-16.1c-1.7-1.6-3.6-2.8-5.6-3.8c-1.9-0.9-3.9-1.6-6-2
				C490.8,26.1,487.8,25.9,484.7,26L484.7,26z"/>
		</g>
	</g>
	<path id="Path_165" class="st0" d="M6371.6-6845v-23.2h1.9l8.7,10.7l8.6-10.7h2v23.2h-1.9v-20.5l-8.7,10.8l-8.7-10.8v20.5H6371.6z
		 M6398.5-6845v-23.2h12.6v1.5h-10.7v9.2h10.4v1.5h-10.4v9.5h11v1.6H6398.5z M6413.1-6845v-0.8l17.4-20.9h-16.5v-1.5h19.5v0.7
		l-17.4,20.9h17.4v1.6H6413.1z M6434.6-6845v-0.8l17.5-20.9h-16.5v-1.5h19.5v0.7l-17.4,20.9h17.4v1.6H6434.6z M6461-6854.7h8.9
		l-4.4-10.5L6461-6854.7z M6455-6845l10.1-23.4h0.7l10.1,23.4h-2l-3.4-8.1h-10.2l-3.4,8.1H6455z M6478.1-6845v-23.2h1.9l17,20.3
		v-20.3h1.9v23.2h-1.7l-17.2-20.5v20.5H6478.1z M6504.7-6845v-23.2h2v23.2H6504.7z M6512.6-6845v-23.2h1.9l17,20.3v-20.3h1.9v23.2
		h-1.7l-17.2-20.5v20.5H6512.6z M6539.1-6845v-23.2h12.6v1.5H6541v9.2h10.4v1.5H6541v9.5h11v1.6H6539.1z"/>
</g>
</svg>
