<svg xmlns="http://www.w3.org/2000/svg" width="350.001" height="76.004" viewBox="0 0 350.001 76.004">
  <g id="southfield-mezzanine-blue" transform="translate(16607 -11285)">
    <path id="Path_166" data-name="Path 166" d="M191.491,34.292l23.469-1.53-23.47-1.53,7.448-8.934-8.9,7.418L188.475,0l-1.566,29.717-8.9-7.418,7.45,8.934-23.472,1.53,23.469,1.531-7.448,8.932,8.9-7.419,1.566,29.718,1.566-29.718,8.9,7.419Z" transform="translate(-16744.383 11285)" fill="#919295"/>
    <path id="Path_167" data-name="Path 167" d="M12.227,101.316,7.76,98.6a20.281,20.281,0,0,1-5.981-5.049A9.583,9.583,0,0,1,0,87.834a10.1,10.1,0,0,1,3.365-7.878,12.577,12.577,0,0,1,8.745-3.028,16.558,16.558,0,0,1,9.437,2.886v6.672q-4.439-4.269-9.554-4.269A7.9,7.9,0,0,0,7.26,83.55a4.06,4.06,0,0,0-1.852,3.415,5.249,5.249,0,0,0,1.367,3.456,17.227,17.227,0,0,0,4.384,3.38l4.487,2.655q7.513,4.489,7.513,11.425a10.475,10.475,0,0,1-3.307,8.025,12.1,12.1,0,0,1-8.6,3.087A18.054,18.054,0,0,1,.173,115.251v-7.465q4.762,6.031,11.023,6.032a6.928,6.928,0,0,0,4.6-1.537,4.821,4.821,0,0,0,1.84-3.851Q17.637,104.679,12.227,101.316Z" transform="translate(-16607 11219.758)" fill="#243c86"/>
    <path id="Path_168" data-name="Path 168" d="M212.969,76.55a22.086,22.086,0,0,1,15.849,6.025,19.98,19.98,0,0,1,6.33,15.109,19.682,19.682,0,0,1-6.388,15.039q-6.388,5.956-16.113,5.95a21.417,21.417,0,0,1-15.467-5.953A19.831,19.831,0,0,1,191,97.8a20.291,20.291,0,0,1,6.228-15.227A21.713,21.713,0,0,1,212.969,76.55Zm.235,5.583a15.946,15.946,0,0,0-11.586,4.405A15.034,15.034,0,0,0,197.076,97.8a14.737,14.737,0,0,0,4.557,11.051,16.9,16.9,0,0,0,22.862-.093,15.027,15.027,0,0,0,4.6-11.2,14.675,14.675,0,0,0-4.6-10.98A15.619,15.619,0,0,0,213.2,82.133Z" transform="translate(-16768.984 11220.079)" fill="#243c86"/>
    <path id="Path_169" data-name="Path 169" d="M560.955,80.42h5.909v23.309a27.644,27.644,0,0,1-.691,7.14,15.521,15.521,0,0,1-1.706,4.012,12.724,12.724,0,0,1-2.484,2.87q-4.881,4.206-12.76,4.2-8.025,0-12.876-4.176a13.316,13.316,0,0,1-2.484-2.9,15.046,15.046,0,0,1-1.671-3.924,29.1,29.1,0,0,1-.662-7.292V80.426h5.909v23.3q0,5.789,1.323,8.051a9.441,9.441,0,0,0,4.027,3.631,13.976,13.976,0,0,0,6.38,1.367,12.9,12.9,0,0,0,8.524-2.734,8.461,8.461,0,0,0,2.5-3.47,21.448,21.448,0,0,0,.76-6.848Z" transform="translate(-17057.785 11216.797)" fill="#243c86"/>
    <path id="Path_170" data-name="Path 170" d="M802.63,80h34.3v5.233H822.618v35.895h-5.908V85.236H802.63Z" transform="translate(-17287.703 11217.152)" fill="#243c86"/>
    <path id="Path_171" data-name="Path 171" d="M1093.957,80.42h5.88v41.064h-5.88V103.612h-23.075v17.872H1065V80.42h5.879V98.174h23.075Z" transform="translate(-17510.217 11216.797)" fill="#243c86"/>
    <path id="Path_172" data-name="Path 172" d="M1362.23,80.42h21.9v5.23h-16.022V97.116h16.022v5.23h-16.022v19.141h-5.879Z" transform="translate(-17762.295 11216.797)" fill="#243c86"/>
    <path id="Path_173" data-name="Path 173" d="M1556.11,80.42h5.879v41.064h-5.879Z" transform="translate(-17926.723 11216.797)" fill="#243c86"/>
    <path id="Path_174" data-name="Path 174" d="M1654.8,80.42h23.282v5.23h-17.4V98.174h16.815v5.262h-16.815V116.2h17.962v5.233H1654.8Z" transform="translate(-18010.42 11216.797)" fill="#243c86"/>
    <path id="Path_175" data-name="Path 175" d="M1860.88,80.42h5.879v35.714h18.489v5.35H1860.88Z" transform="translate(-18185.195 11216.797)" fill="#243c86"/>
    <path id="Path_176" data-name="Path 176" d="M2055.54,121.425v-41h13.845q8.379,0,13.257,2.513a18.933,18.933,0,0,1,7.755,7.392,20.562,20.562,0,0,1,2.886,10.634,20.132,20.132,0,0,1-6.114,14.492,19.844,19.844,0,0,1-6.967,4.439,20.753,20.753,0,0,1-4.254,1.215,57.972,57.972,0,0,1-7.408.3Zm13.228-35.775h-7.349v30.534h7.525a29.892,29.892,0,0,0,6.85-.608,16.269,16.269,0,0,0,4.071-1.528,13.99,13.99,0,0,0,2.984-2.279,15.2,15.2,0,0,0,4.351-11.14,14.084,14.084,0,0,0-4.468-10.786,14.282,14.282,0,0,0-3.778-2.558,15.836,15.836,0,0,0-4.042-1.323A42.733,42.733,0,0,0,2068.768,85.65Z" transform="translate(-18350.283 11216.797)" fill="#243c86"/>
    <path id="Path_165" d="M342,105.977V90.434h1.273L349.1,97.6l5.762-7.168h1.34v15.543H354.93V92.243L349.1,99.478l-5.829-7.235v13.734Zm18.022,0V90.434h8.441v1h-7.168V97.6h6.967v1h-6.967v6.365h7.369v1.072l-8.642-.067Zm9.781,0v-.536l11.724-14H370.473v-1h13.064V90.9l-11.657,14h11.657v1.072Zm14.471,0v-.536l11.657-14H384.877v-1h13.064V90.9l-11.657,14h11.657v1.072Zm17.62-6.5h5.963l-2.948-7.034Zm-4.02,6.5L404.64,90.3h.469l6.766,15.677h-1.34l-2.278-5.427h-6.833l-2.278,5.427Zm15.476,0V90.434h1.273l11.389,13.6v-13.6h1.273v15.543h-1.139L414.623,92.243v13.734Zm17.821,0V90.434h1.34v15.543Zm5.293,0V90.434h1.273l11.389,13.6v-13.6H450.4v15.543h-1.139L437.736,92.243v13.734Zm17.754,0V90.434h8.441v1H455.49V97.6h6.967v1H455.49v6.365h7.369v1.072l-8.642-.067Z" transform="translate(-16719.859 11254.96)" fill="#919295"/>
  </g>
</svg>
